<?xml version="1.0" standalone="no"?>
<!DOCTYPE svg PUBLIC "-//W3C//DTD SVG 20010904//EN"
 "http://www.w3.org/TR/2001/REC-SVG-20010904/DTD/svg10.dtd">
<svg version="1.0" xmlns="http://www.w3.org/2000/svg"
 width="88.000000pt" height="88.000000pt" viewBox="0 0 88.000000 88.000000"
 preserveAspectRatio="xMidYMid meet">
<metadata>
Created by potrace 1.11, written by Peter Selinger 2001-2013
</metadata>
<g transform="translate(0.000000,88.000000) scale(0.100000,-0.100000)"
fill="#000000" stroke="none">
<path d="M256 778 c-128 -74 -172 -104 -156 -106 14 -2 81 30 180 87 86 50
160 91 163 91 3 0 76 -41 161 -91 98 -56 165 -89 179 -87 16 2 -28 32 -155
106 -97 56 -180 102 -185 102 -5 0 -89 -46 -187 -102z"/>
<path d="M60 445 c0 -130 4 -205 10 -205 6 0 10 75 10 205 0 130 -4 205 -10
205 -6 0 -10 -75 -10 -205z"/>
<path d="M800 445 c0 -130 4 -205 10 -205 6 0 10 75 10 205 0 130 -4 205 -10
205 -6 0 -10 -75 -10 -205z"/>
<path d="M457 603 c-5 -9 -87 -298 -87 -308 0 -3 11 -5 24 -5 21 0 26 11 65
153 22 84 41 156 41 160 0 9 -38 9 -43 0z"/>
<path d="M273 502 c-62 -31 -73 -40 -73 -62 0 -22 11 -31 75 -63 l75 -37 0 34
c0 30 -4 36 -35 46 -19 6 -35 15 -35 20 0 5 16 14 35 20 31 10 35 16 35 46 0
19 -1 34 -2 33 -2 0 -36 -17 -75 -37z"/>
<path d="M530 506 c0 -30 4 -36 35 -46 19 -6 35 -15 35 -20 0 -5 -16 -14 -35
-20 -31 -10 -35 -16 -35 -46 l0 -34 75 37 c64 32 75 41 75 63 0 22 -11 31 -75
63 l-75 37 0 -34z"/>
<path d="M66 212 c21 -19 364 -212 376 -212 13 0 355 193 372 211 6 5 2 9 -12
9 -12 0 -96 -43 -186 -95 -91 -52 -169 -95 -174 -95 -5 0 -83 43 -173 95 -90
52 -175 95 -188 95 -14 0 -21 -4 -15 -8z"/>
</g>
</svg>
