<?xml version="1.0" standalone="no"?>
<!DOCTYPE svg PUBLIC "-//W3C//DTD SVG 20010904//EN"
 "http://www.w3.org/TR/2001/REC-SVG-20010904/DTD/svg10.dtd">
<svg version="1.0" xmlns="http://www.w3.org/2000/svg"
 width="88.000000pt" height="88.000000pt" viewBox="0 0 88.000000 88.000000"
 preserveAspectRatio="xMidYMid meet">
<metadata>
Created by potrace 1.11, written by Peter Selinger 2001-2013
</metadata>
<g transform="translate(0.000000,88.000000) scale(0.100000,-0.100000)"
fill="#000000" stroke="none">
<path d="M256 778 c-177 -102 -178 -103 -137 -106 35 -3 61 8 179 72 76 42
142 76 145 76 3 0 68 -34 144 -75 117 -64 144 -75 178 -73 39 3 38 4 -137 106
-97 56 -180 102 -185 102 -5 0 -89 -46 -187 -102z"/>
<path d="M60 445 c0 -198 1 -205 20 -205 19 0 20 7 20 205 0 198 -1 205 -20
205 -19 0 -20 -7 -20 -205z"/>
<path d="M780 445 c0 -198 1 -205 20 -205 19 0 20 7 20 205 0 198 -1 205 -20
205 -19 0 -20 -7 -20 -205z"/>
<path d="M457 603 c-5 -9 -87 -298 -87 -308 0 -3 11 -5 24 -5 21 0 26 11 65
153 22 84 41 156 41 160 0 9 -38 9 -43 0z"/>
<path d="M273 502 c-62 -31 -73 -40 -73 -62 0 -22 11 -31 75 -63 l75 -37 0 34
c0 30 -4 36 -35 46 -19 6 -35 15 -35 20 0 5 16 14 35 20 31 10 35 16 35 46 0
19 -1 34 -2 33 -2 0 -36 -17 -75 -37z"/>
<path d="M530 506 c0 -30 4 -36 35 -46 19 -6 35 -15 35 -20 0 -5 -16 -14 -35
-20 -31 -10 -35 -16 -35 -46 l0 -34 75 37 c64 32 75 41 75 63 0 22 -11 31 -75
63 l-75 37 0 -34z"/>
<path d="M66 212 c21 -19 364 -212 376 -212 13 0 355 193 372 211 6 5 -5 9
-28 9 -35 0 -156 -58 -312 -151 l-31 -19 -152 85 c-122 68 -161 85 -194 85
-23 0 -37 -4 -31 -8z"/>
</g>
</svg>
