<?xml version="1.0" encoding="UTF-8" standalone="no"?>
<!DOCTYPE svg PUBLIC "-//W3C//DTD SVG 1.1//EN" "http://www.w3.org/Graphics/SVG/1.1/DTD/svg11.dtd">
<svg width="100%" height="100%" viewBox="0 0 400 400" version="1.1" xmlns="http://www.w3.org/2000/svg" xmlns:xlink="http://www.w3.org/1999/xlink" xml:space="preserve" xmlns:serif="http://www.serif.com/" style="fill-rule:evenodd;clip-rule:evenodd;stroke-linejoin:round;stroke-miterlimit:2;">
    <g transform="matrix(1,0,0,1,15,16)">
        <path d="M39.624,0C35.816,0 32.72,1.313 30.338,3.919C27.957,6.536 26.776,9.743 26.776,13.539L26.776,101.864C36.055,97.804 46.298,95.537 57.073,95.537C65.677,95.537 73.94,96.983 81.643,99.633L81.643,49.168L254.253,49.168C269.406,49.168 282.076,54.155 292.253,64.131C302.43,74.107 307.529,86.222 307.529,100.472C307.529,114.257 302.897,126.248 293.633,136.458C284.37,146.679 271.655,151.778 255.511,151.778L110.746,151.778C107.538,142.928 102.208,135.097 95.366,128.903C85.24,119.734 71.81,114.148 57.073,114.148C25.553,114.148 0,139.702 0,171.223C0,202.743 25.553,228.296 57.073,228.296C71.81,228.296 85.24,222.71 95.366,213.541C100.023,209.325 103.977,204.346 107.041,198.807L261.922,198.807C279.971,198.807 293.866,204.864 303.609,216.978C313.339,229.091 318.217,242.986 318.217,258.663C318.217,275.298 312.405,289.426 300.803,301.06C289.201,312.707 274.404,318.519 256.413,318.519L81.643,318.519L81.643,242.824C73.94,245.47 65.676,246.907 57.073,246.907C46.298,246.907 36.055,244.64 26.776,240.581L26.776,354.859C26.776,358.667 27.957,361.752 30.338,364.123C32.72,366.505 35.816,367.686 39.624,367.686L261.702,367.686C276.454,367.686 290.37,364.836 303.465,359.136C316.558,353.435 327.981,345.72 337.745,335.977C347.499,326.247 355.236,314.845 360.948,301.774C366.66,288.714 369.522,274.819 369.522,260.089C369.522,242.04 365.079,225.529 356.195,210.564C347.311,195.601 335.664,183.13 321.256,173.155C332.336,164.136 341.365,153.203 348.356,140.376C355.337,127.551 358.833,113.543 358.833,98.335C358.833,85.041 356.206,72.327 350.973,60.213C345.74,48.098 338.592,37.655 329.551,28.86C320.511,20.075 309.911,13.072 297.775,7.839C285.638,2.616 272.902,0 259.574,0L39.624,0ZM28.537,171.223C28.537,155.462 41.313,142.685 57.073,142.685C72.834,142.685 85.611,155.462 85.611,171.223C85.611,186.982 72.834,199.76 57.073,199.76C41.313,199.76 28.537,186.982 28.537,171.223Z" style="fill:url(#_Linear1);fill-rule:nonzero;"/>
    </g>
    <defs>
        <linearGradient id="_Linear1" x1="0" y1="0" x2="1" y2="0" gradientUnits="userSpaceOnUse" gradientTransform="matrix(984.708,0,0,984.708,94.4706,183.843)"><stop offset="0" style="stop-color:rgb(49,124,222);stop-opacity:1"/><stop offset="1" style="stop-color:rgb(79,172,254);stop-opacity:1"/></linearGradient>
    </defs>
</svg>
